<svg width="162" height="30" viewBox="0 0 162 30" fill="none" xmlns="http://www.w3.org/2000/svg">
<path d="M36.2061 21.2009C35.3812 20.9824 34.6015 20.6203 33.9031 20.1314L34.9254 17.91C35.5246 18.3356 36.1849 18.6685 36.884 18.8973C37.629 19.1322 38.4055 19.2534 39.1869 19.2568C39.835 19.2949 40.4816 19.1597 41.0596 18.8652C41.248 18.7734 41.4088 18.6339 41.5259 18.4606C41.6431 18.2873 41.7123 18.0863 41.7268 17.8779C41.729 17.7335 41.6976 17.5906 41.635 17.4604C41.5724 17.3302 41.4803 17.2163 41.366 17.1276C41.0975 16.9005 40.7841 16.7323 40.4461 16.6339C39.951 16.4715 39.4461 16.3406 38.9342 16.2423C38.1085 16.044 37.32 15.8137 36.5289 15.5504C35.9039 15.3197 35.3481 14.9344 34.9138 14.4307C34.4502 13.8449 34.2155 13.1115 34.2532 12.3664C34.2449 11.6457 34.451 10.9386 34.8453 10.3343C35.2901 9.67621 35.9229 9.16632 36.6619 8.87067C37.6089 8.47925 38.6297 8.29627 39.6543 8.33425C40.4652 8.33272 41.2732 8.43166 42.0596 8.62879C42.7776 8.79755 43.4655 9.07501 44.0991 9.45152L43.1735 11.714C42.0907 11.064 40.8539 10.7125 39.5899 10.6955C38.9505 10.657 38.3126 10.7924 37.7444 11.0871C37.5539 11.1935 37.3954 11.3488 37.2857 11.5369C37.1759 11.725 37.1187 11.939 37.1201 12.1566C37.1149 12.3746 37.1786 12.5888 37.3021 12.7687C37.4257 12.9487 37.603 13.0854 37.8088 13.1596C38.4856 13.4486 39.1935 13.6592 39.9185 13.7873C40.7365 13.9487 41.5394 14.1782 42.3189 14.4735C42.9421 14.705 43.4972 15.0885 43.9331 15.5891C44.4028 16.1628 44.6475 16.887 44.6218 17.627C44.6335 18.343 44.4148 19.0439 43.9975 19.627C43.534 20.2722 42.8956 20.7725 42.157 21.0693C41.2028 21.442 40.1844 21.6242 39.1597 21.6057C38.1586 21.6196 37.161 21.484 36.2003 21.2034L36.2061 21.2009ZM52.7914 16.8404V21.3984H49.799V16.8256L44.7944 8.55803H47.9536L51.4141 14.2686L54.8747 8.55803H57.8019L52.7914 16.8404ZM69.5436 21.3984V13.6902L65.7767 20.0491H64.4258L60.6589 13.8548V21.4156H57.8605V8.54651H60.3302L65.1731 16.5517L69.9465 8.54651H72.3898L72.422 21.4148L69.5436 21.3984ZM83.0399 9.09856C83.6255 9.37469 84.1459 9.77092 84.5672 10.2613C84.9884 10.7517 85.301 11.3252 85.4844 11.9443C85.6678 12.5634 85.7179 13.2141 85.6315 13.8538C85.5451 14.4935 85.324 15.1078 84.9829 15.6565C84.5153 16.3778 83.8373 16.9391 83.0399 17.265C82.1042 17.6555 81.0944 17.8385 80.0806 17.8014H77.4812V21.3416H74.4839V8.55721H80.0806C81.0943 8.52197 82.1036 8.70493 83.0399 9.09363V9.09856ZM81.9665 14.8355C82.1904 14.6302 82.3658 14.378 82.4801 14.097C82.5943 13.816 82.6445 13.5132 82.6271 13.2106C82.6418 12.9016 82.5893 12.5931 82.4731 12.3062C82.357 12.0194 82.1799 11.7609 81.9541 11.5487C81.3652 11.1189 80.6429 10.91 79.9146 10.9588H77.4771V15.4262H79.9361C80.6593 15.5077 81.3869 15.3163 81.9756 14.8898L81.9665 14.8355ZM98.9499 8.54075V21.4099H95.9575V16.1337H90.0866V21.4156H87.0942V8.54651H90.0866V13.6409H95.9492V8.55721L98.9499 8.54075ZM104.083 20.7443C103.038 20.187 102.162 19.3591 101.548 18.3477C100.951 17.3098 100.636 16.1341 100.636 14.9375C100.636 13.7409 100.951 12.5652 101.548 11.5273C102.154 10.5099 103.032 9.68014 104.083 9.13065C105.206 8.56477 106.447 8.26993 107.705 8.26993C108.963 8.26993 110.204 8.56477 111.327 9.13065C112.863 9.95708 114.009 11.3562 114.513 13.0221C115.018 14.6879 114.839 16.485 114.018 18.0202C113.415 19.1657 112.476 20.1009 111.327 20.7015C110.215 21.3026 108.972 21.6223 107.707 21.6327C106.442 21.643 105.194 21.3436 104.073 20.7608L104.083 20.7443ZM109.742 18.5443C110.365 18.208 110.872 17.6918 111.195 17.0634C111.539 16.4004 111.719 15.6649 111.719 14.9185C111.719 14.1722 111.539 13.4367 111.195 12.7737C110.862 12.1541 110.358 11.6426 109.742 11.2994C109.11 10.9615 108.404 10.7846 107.686 10.7846C106.969 10.7846 106.263 10.9615 105.631 11.2994C104.99 11.64 104.472 12.1727 104.151 12.8222C103.809 13.481 103.63 14.2118 103.63 14.9535C103.63 15.6952 103.809 16.4261 104.151 17.0848C104.482 17.7041 104.984 18.2158 105.599 18.5591C106.226 18.9125 106.934 19.0982 107.654 19.0982C108.375 19.0982 109.083 18.9125 109.71 18.5591L109.742 18.5443ZM128.243 8.53911V21.4099H125.773L119.315 13.603V21.4189H116.356V8.54651H118.826L125.235 16.3748V8.55885L128.243 8.53911ZM130.676 8.53911H133.634V21.4099H130.675L130.676 8.53911ZM138.748 20.7747C137.707 20.2395 136.839 19.4214 136.246 18.4151C135.632 17.3696 135.315 16.1781 135.326 14.9671C135.298 13.7647 135.611 12.5788 136.23 11.5462C136.822 10.5388 137.69 9.72036 138.732 9.18659C139.748 8.66545 140.863 8.3671 142.004 8.31161C143.145 8.25612 144.285 8.44479 145.346 8.86491C146.239 9.22654 147.022 9.81414 147.617 10.5696L145.712 12.3393C145.314 11.866 144.814 11.4877 144.25 11.2325C143.685 10.9774 143.071 10.8518 142.451 10.865C141.699 10.8562 140.958 11.041 140.298 11.4014C139.684 11.7406 139.173 12.2389 138.819 12.8436C138.475 13.5066 138.295 14.2421 138.295 14.9885C138.295 15.7349 138.475 16.4704 138.819 17.1333C139.157 17.7498 139.672 18.2519 140.298 18.5756C140.959 18.9328 141.7 19.1174 142.451 19.112C143.076 19.1116 143.692 18.9728 144.256 18.7057C144.82 18.4386 145.317 18.0499 145.712 17.5677L147.617 19.3374C147.015 20.0863 146.234 20.6725 145.346 21.0421C144.376 21.4343 143.338 21.6347 142.291 21.632C141.054 21.6626 139.83 21.3795 138.734 20.8093L138.748 20.7747ZM157.771 18.6299H151.733L150.581 21.386H147.519L153.283 8.51772H156.242L162 21.386H158.874L157.771 18.6299ZM156.802 16.3723L154.738 11.4771L152.72 16.3723H156.802ZM29.8893 20.8817H21.5149V16.7878C21.512 16.6627 21.5591 16.5415 21.6458 16.451C21.7325 16.3604 21.8517 16.3079 21.9773 16.3048C22.0744 16.3105 22.1679 16.3439 22.2465 16.4011C22.5405 16.6128 22.8953 16.7239 23.258 16.7179C23.719 16.7179 24.1611 16.5354 24.487 16.2106C24.813 15.8858 24.9961 15.4453 24.9961 14.986C24.9961 14.5267 24.813 14.0862 24.487 13.7614C24.1611 13.4366 23.719 13.2542 23.258 13.2542C22.8964 13.2601 22.5446 13.3719 22.2465 13.5759C22.1704 13.6371 22.075 13.6695 21.9773 13.6672C21.8555 13.6672 21.7387 13.6193 21.6521 13.534C21.5655 13.4486 21.5162 13.3327 21.5149 13.2114V0L29.8893 20.8817ZM-0.00164795 8.54898H13.285C13.3436 8.54828 13.4015 8.5358 13.4551 8.5123C13.5088 8.4888 13.5572 8.45476 13.5973 8.41221C13.6375 8.36966 13.6686 8.31948 13.6889 8.26466C13.7091 8.20985 13.7181 8.15153 13.7152 8.09319C13.7184 7.99806 13.6962 7.90378 13.6508 7.82004C13.4882 7.59929 13.3806 7.34319 13.3369 7.07287C13.2932 6.80256 13.3146 6.52575 13.3993 6.26529C13.484 6.00482 13.6296 5.76814 13.8242 5.57477C14.0187 5.3814 14.2566 5.23687 14.5183 5.15309C14.7799 5.06932 15.0577 5.04869 15.3289 5.09293C15.6001 5.13716 15.8569 5.24498 16.078 5.4075C16.2992 5.57002 16.4784 5.78258 16.6009 6.02767C16.7235 6.27275 16.7858 6.54334 16.7827 6.81713C16.7855 7.17647 16.6742 7.52748 16.4648 7.82004C16.414 7.90185 16.3896 7.99714 16.3946 8.09319C16.3946 8.21407 16.4428 8.33 16.5286 8.41548C16.6144 8.50096 16.7308 8.54898 16.8521 8.54898H20.9633V0.204038L-0.00164795 8.54898ZM8.60811 29.9967V16.7664C8.60812 16.6451 8.56008 16.5286 8.47443 16.4423C8.38878 16.3561 8.27244 16.307 8.15066 16.3057C8.05134 16.3167 7.95572 16.3495 7.87074 16.4019C7.58079 16.6135 7.22932 16.7248 6.86997 16.7187C6.40899 16.7187 5.96689 16.5362 5.64093 16.2114C5.31496 15.8867 5.13184 15.4461 5.13184 14.9868C5.13184 14.5275 5.31496 14.087 5.64093 13.7622C5.96689 13.4375 6.40899 13.255 6.86997 13.255C7.22824 13.2607 7.57665 13.3727 7.87074 13.5767C7.9496 13.6404 8.04926 13.6729 8.15066 13.668C8.27159 13.6667 8.38719 13.6183 8.4727 13.5331C8.55821 13.4479 8.60682 13.3327 8.60811 13.2122V9.11008H0.204781L8.60811 29.9967ZM30.1032 21.4239H16.8273C16.7692 21.4246 16.7118 21.4369 16.6585 21.46C16.6053 21.4832 16.5572 21.5167 16.5171 21.5586C16.477 21.6006 16.4458 21.6501 16.4251 21.7042C16.4045 21.7583 16.395 21.816 16.3971 21.8739C16.3956 21.9696 16.4199 22.0639 16.4673 22.1471C16.6798 22.4381 16.7913 22.7901 16.7852 23.15C16.7852 23.6093 16.6021 24.0498 16.2761 24.3746C15.9501 24.6993 15.508 24.8818 15.0471 24.8818C14.5861 24.8818 14.144 24.6993 13.818 24.3746C13.492 24.0498 13.3089 23.6093 13.3089 23.15C13.3115 22.7873 13.4324 22.4353 13.6532 22.1471C13.6953 22.0621 13.7173 21.9687 13.7176 21.8739C13.7161 21.755 13.6681 21.6414 13.5837 21.5573C13.4993 21.4733 13.3853 21.4254 13.266 21.4239H9.14895V29.7828L30.1032 21.4239Z" fill="url(#paint0_linear_1_109)"/>
<defs>
<linearGradient id="paint0_linear_1_109" x1="-5.0237" y1="22.8875" x2="32.3722" y2="-67.9574" gradientUnits="userSpaceOnUse">
<stop stop-color="#1976D2"/>
<stop offset="1" stop-color="#E040FB"/>
</linearGradient>
</defs>
</svg>
